# xmcd
#
# Track frame offsets:
#	182
#	14645
#	32130
#	48667
#	67057
#	80925
#	96232
#	108687
#	127270
#	146222
#	162785
#	177557
#	193557
#	210972
#	227665
#	245105
#	262410
#	276697
#	299517
#	309292
#
# Disc length: 4409
#
# Revision: 4
# Processed by: cddbd v1.5.1PL0 Copyright (c) Steve Scherf et al.
# Submitted via: EasyCDDAExtractor 5.0.2.1
# Normalized: r3:DSETVAR1
#
DISCID=4f113714
DTITLE=Various Artist - Album
DYEAR=1900
DGENRE=Country
TTITLE0=LOU BEGA - Mambo mambo
TTITLE1=LADY - Easy Love
TTITLE2=FRENCH AFFAIR - My Heart goes Boom
TTITLE3=HERMES HOUSE BAND - I will survive
TTITLE4=HAVANA DELIRIO - Carnavalera
TTITLE5=GIPSY KINGS - Djobi Djoba
TTITLE6=PATRICK SEBASTIEN - Le petit Bonhomme en mousse
TTITLE7=REGG'LYSS - Mets de l'huile
TTITLE8=LOS DEL RIO - Macarena
TTITLE9=WES - Alane
TTITLE10=JANEIRO VERDE - Brasilia Carnaval
TTITLE11=ESPERANZA - El ritmo caliente
TTITLE12=BONEY M - Daddy cool 99
TTITLE13=VILLAGE PEOPLE - In the navy
TTITLE14=INDOCHINE - L'aventurier
TTITLE15=DANY BRILLANT - Suzette
TTITLE16=PHILIPPE LAVIL - Il tape sur des bambous
TTITLE17=LA COMPAGNIE CREOLE - Le bal masqué
TTITLE18=BILL HALEY - rock around the clock (live)
TTITLE19=JIVE BUNNY - Swing in the mood
EXTD=ID3G: 2
EXTT0=
EXTT1=
EXTT2=
EXTT3=
EXTT4=
EXTT5=
EXTT6=
EXTT7=
EXTT8=
EXTT9=
EXTT10=
EXTT11=
EXTT12=
EXTT13=
EXTT14=
EXTT15=
EXTT16=
EXTT17=
EXTT18=
EXTT19=
PLAYORDER=
